<svg width="501" height="501" viewBox="0 0 501 501" fill="none" xmlns="http://www.w3.org/2000/svg">
<path d="M250.093 0.00418486C250.09 0.0015273 250.087 1.88902e-07 250.084 6.23231e-07C196.346 0.00664316 144.042 17.3234 100.916 49.3833C57.7876 81.4387 26.13 126.535 10.6279 177.986C-4.86871 229.441 -3.38493 284.522 14.8589 335.073C33.1081 385.618 67.1483 428.943 111.941 458.633C156.733 488.322 209.895 502.798 263.556 499.913C317.219 497.029 368.527 476.942 409.882 442.624C451.234 408.306 480.432 361.583 493.157 309.37C505.884 257.163 501.456 202.24 480.535 152.744C461.385 107.456 429.32 68.8133 388.333 41.649C347.349 14.4856 299.27 -0.00170823 250.102 0.00836922C250.098 0.00836994 250.095 0.00684282 250.093 0.00418486ZM250.088 437.73C250.089 437.732 250.087 437.734 250.085 437.734C190.203 437.755 133.907 409.173 98.5711 360.821C63.2341 312.468 53.1087 250.152 71.3146 193.097C89.5205 136.042 133.87 91.1092 190.681 72.1607C235.168 57.3234 283.112 59.8158 325.254 78.2611C343.728 86.3471 345.739 110.232 331.479 124.492C320.939 135.032 304.703 136.634 290.63 131.72C260.192 121.093 226.479 122.402 196.562 136.036C158.874 153.207 131.987 187.748 124.599 228.499C117.211 269.251 130.254 311.039 159.512 340.352C188.77 369.664 230.536 382.778 271.299 375.46C312.061 368.143 346.657 341.316 363.893 303.661C372.072 285.797 375.852 266.57 375.313 247.489C374.251 209.838 376.353 168.024 402.988 141.389C402.984 141.393 402.984 141.398 402.987 141.401C410.907 152.544 417.591 164.521 422.916 177.114C447.392 235.047 441.209 301.393 406.449 353.813C371.691 406.222 312.98 437.731 250.092 437.727C250.09 437.727 250.088 437.728 250.088 437.73ZM312.624 250.134C312.629 270.995 302.232 290.476 284.898 302.091C267.571 313.705 245.592 315.908 226.301 307.974C207.011 300.036 192.944 283.001 188.805 262.561C184.661 242.115 190.986 220.948 205.669 206.127C220.354 191.313 241.46 184.792 261.938 188.739C282.424 192.692 299.583 206.602 307.701 225.821C310.945 233.509 312.618 241.781 312.624 250.134Z" fill="#8CFFE8"/>
</svg>
